<svg width="53" height="16" viewBox="0 0 53 16" fill="none" xmlns="http://www.w3.org/2000/svg">
<path d="M12.4729 4.22988C13.1598 3.822 14.0118 3.61805 15.0288 3.61805C16.4793 3.61805 17.5065 4.06001 18.1103 4.94393C18.7141 5.82786 18.9271 7.01689 18.7493 8.51104L17.9346 15.2203H15.4473L16.2461 8.69475C16.3675 7.78953 16.2578 7.10209 15.917 6.63244C15.5762 6.16279 14.9985 5.92903 14.1838 5.93116C13.7014 5.91685 13.223 6.02165 12.7908 6.23628C12.4071 6.43889 12.0711 6.72099 11.8052 7.06375C11.5211 7.43862 11.3048 7.86032 11.1662 8.30976C11.0025 8.81769 10.8922 9.34129 10.8371 9.87207L10.1758 15.2187H7.72527L8.52399 8.69315C8.64433 7.78793 8.53092 7.10049 8.18374 6.63084C7.83656 6.16119 7.25508 5.92744 6.43932 5.92957C5.95696 5.91506 5.47848 6.01986 5.04635 6.23468C4.6624 6.4371 4.32925 6.72382 4.0719 7.07334C3.79308 7.45149 3.5773 7.87226 3.43292 8.31935C3.26784 8.82307 3.15751 9.34312 3.10384 9.87047L2.44729 15.2187H0L1.38978 3.88962H3.76839L3.58788 5.49825C3.99886 4.93674 4.52843 4.47261 5.13899 4.13882C5.83413 3.77569 6.61062 3.59641 7.3946 3.61805C8.30089 3.61805 9.02559 3.81081 9.56873 4.19633C10.1178 4.58841 10.5235 5.14947 10.7237 5.79378C11.1999 5.16404 11.794 4.63289 12.4729 4.22988Z" fill="#5350FF"/>
<path d="M23.5528 4.34332C24.4048 3.85983 25.4958 3.61807 26.826 3.61807C28.4234 3.61807 29.5677 3.99081 30.2589 4.73629C30.95 5.48176 31.203 6.58454 31.0177 8.04461L30.1343 15.2331H27.687L27.8675 13.6692C27.4571 14.2135 26.9262 14.6553 26.3164 14.96C25.6163 15.3055 24.8429 15.4765 24.0624 15.4584C22.974 15.4584 22.1279 15.1714 21.524 14.5973C20.9202 14.0233 20.6183 13.2608 20.6183 12.3098C20.6116 11.7866 20.7207 11.2684 20.9378 10.7922C21.1441 10.3462 21.4367 9.94553 21.7988 9.61331C22.1785 9.27217 22.6162 9.00168 23.0911 8.81458C23.6044 8.60649 24.1473 8.48035 24.6998 8.44077L27.917 8.12128C28.0974 8.11061 28.2724 8.05575 28.4266 7.96154C28.5336 7.86891 28.602 7.73952 28.6183 7.59891L28.6646 7.34971C28.7068 7.14883 28.6896 6.94002 28.6149 6.7488C28.5403 6.55758 28.4116 6.39224 28.2445 6.27303C27.8899 5.99401 27.335 5.8545 26.5799 5.8545C25.9389 5.84636 25.3041 5.98172 24.7221 6.25067C24.1549 6.52449 23.7162 7.00788 23.4985 7.59891L21.6854 6.35291C22.0755 5.4996 22.7303 4.79486 23.5528 4.34332ZM25.0129 10.3929C24.3941 10.4685 23.9372 10.657 23.6422 10.9584C23.5012 11.0974 23.3894 11.2633 23.3137 11.4464C23.238 11.6294 23.1998 11.8258 23.2014 12.0239C23.1942 12.2021 23.2282 12.3795 23.3008 12.5424C23.3734 12.7053 23.4826 12.8493 23.6199 12.9632C23.9 13.1985 24.326 13.3157 24.8978 13.3146C25.3268 13.3185 25.7531 13.246 26.1566 13.1005C26.5279 12.9644 26.8727 12.765 27.1758 12.5111C27.4672 12.2669 27.7147 11.9746 27.9074 11.6469C28.0905 11.3377 28.2095 10.9949 28.2573 10.6389L28.3483 9.98072L25.0129 10.3929Z" fill="#5350FF"/>
<path d="M37.2046 15.3322C36.7412 15.3412 36.279 15.2798 35.834 15.15C35.4748 15.046 35.1528 14.8415 34.9059 14.5606C34.6544 14.2549 34.4889 13.8876 34.4267 13.4967C34.3427 12.9715 34.3389 12.4367 34.4155 11.9104L35.1407 5.9743H32.9874L33.2366 3.89761H35.3899L35.7749 0.862457H38.2222L37.8356 3.89761H40.8276L40.5784 5.9743H37.5864L36.8851 11.7523C36.8388 12.1452 36.8851 12.4424 37.0449 12.6468C37.2046 12.8513 37.5353 12.952 38.064 12.952C38.3027 12.9506 38.5411 12.9357 38.7781 12.9072C39.0417 12.8769 39.3564 12.8321 39.719 12.7714L39.4458 15.0079C38.7171 15.2178 37.963 15.3269 37.2046 15.3322Z" fill="#5350FF"/>
<path d="M42.1711 7.72989C42.4768 6.94126 42.9307 6.21845 43.5082 5.60049C44.0876 4.98421 44.7851 4.49091 45.5593 4.15001C46.3912 3.7873 47.2908 3.60595 48.1983 3.61805C48.98 3.59945 49.7564 3.74985 50.4746 4.05895C51.0908 4.3337 51.6284 4.75819 52.0386 5.29378C52.4534 5.85444 52.7362 6.50152 52.866 7.18676C53.0183 7.98193 53.041 8.7965 52.9331 9.5989L52.8437 10.3018H44.1647V10.3241C44.1556 10.7588 44.2366 11.1907 44.4027 11.5925C44.5497 11.9382 44.7751 12.245 45.0609 12.4887C45.3518 12.7284 45.6865 12.909 46.0465 13.0206C46.4345 13.1431 46.8393 13.204 47.2462 13.2012C47.928 13.2087 48.6024 13.0595 49.2174 12.7651C49.7851 12.4925 50.3116 12.1413 50.7813 11.7219L51.6871 13.6932C51.0913 14.1897 50.4322 14.6049 49.727 14.928C48.9507 15.2986 48.0183 15.4839 46.9299 15.4839C46.1804 15.4954 45.4353 15.3687 44.7318 15.1101C44.1119 14.8803 43.5483 14.5209 43.0784 14.0558C42.6193 13.5942 42.267 13.0374 42.0465 12.4248C41.8044 11.7414 41.6854 11.0204 41.6951 10.2954C41.6915 9.41794 41.853 8.54764 42.1711 7.72989ZM49.8389 6.56375C49.4395 6.04937 48.7712 5.79218 47.8341 5.79218C47.053 5.76612 46.2876 6.01486 45.6711 6.49506C45.0638 7.0022 44.6248 7.68182 44.4123 8.44395H50.4171C50.4527 7.76882 50.2484 7.10284 49.8405 6.56375H49.8389Z" fill="#5350FF"/>
</svg>
